{"title":"Stuckey's Last Stand (1980) VHS","uid":7454349,"size":3924612461,"categoryP":"video","categoryS":"movies","magnet":"?xt=urn:btih:3cc20e5735eb5f8ea353798d1788243ac7ef70cd&amp;dn=Stuckey%27s+Last+Stand+%281980%29+VHS&amp;tr=udp%3A%2F%2Ftracker.openbittorrent.com%3A80&amp;tr=udp%3A%2F%2Fopen.demonii.com%3A1337&amp;tr=udp%3A%2F%2Ftracker.coppersurfer.tk%3A6969&amp;tr=udp%3A%2F%2Fexodus.desync.com%3A6969","seeders":0,"leechers":0,"uploader":"doobsie101","files":3,"time":1342622940,"description":"Less than decent quality for a VHS. This was a budget camp movie from 1980.\n\n\nGeneral\nComplete name                            : Stuckey's Last Stand (1980)(1985).mpg\nFormat                                   : MPEG-PS\nFile size                                : 3.65 GiB\nDuration                                 : 1h 33mn\nOverall bit rate mode                    : Variable\nOverall bit rate                         : 5 569 Kbps\nWriting library                          : created by Nero\n\nVideo\nID                                       : 224 (0xE0)\nFormat                                   : MPEG Video\nFormat version                           : Version 2\nFormat profile                           : Main@Main\nFormat settings, BVOP                    : Yes\nFormat settings, Matrix                  : Default\nFormat settings, GOP                     : M=3, N=12\nDuration                                 : 1h 33mn\nBit rate mode                            : Variable\nBit rate                                 : 3 922 Kbps\nMaximum bit rate                         : 4 845 Kbps\nWidth                                    : 720 pixels\nHeight                                   : 480 pixels\nDisplay aspect ratio                     : 4:3\nFrame rate                               : 29.970 fps\nStandard                                 : NTSC\nColor space                              : YUV\nChroma subsampling                       : 4:2:0\nBit depth                                : 8 bits\nScan type                                : Progressive\nScan order                               : Top Field First\nCompression mode                         : Lossy\nBits/(Pixel*Frame)                       : 0.379\nStream size                              : 2.57 GiB (70%)\nWriting library                          : created by Nero\n\nAudio\nID                                       : 189 (0xBD)-160 (0xA0)\nFormat                                   : PCM\nFormat settings, Endianness              : Big\nFormat settings, Sign                    : Signed\nMuxing mode                              : DVD-Video\nDuration                                 : 1h 33mn\nBit rate mode                            : Constant\nBit rate                                 : 1 536 Kbps\nChannel(s)                               : 2 channels\nSampling rate                            : 48.0 KHz\nBit depth                                : 16 bits\nDelay relative to video                  : -189ms\nStream size                              : 1.01 GiB (28%)","torrent":{"xt":"urn:btih:3cc20e5735eb5f8ea353798d1788243ac7ef70cd","amp;dn":"Stuckey%27s+Last+Stand+%281980%29+VHS","amp;tr":["udp%3A%2F%2Ftracker.openbittorrent.com%3A80","udp%3A%2F%2Fopen.demonii.com%3A1337","udp%3A%2F%2Ftracker.coppersurfer.tk%3A6969","udp%3A%2F%2Fexodus.desync.com%3A6969"],"infoHash":"3cc20e5735eb5f8ea353798d1788243ac7ef70cd","infoHashBuffer":{"type":"Buffer","data":[60,194,14,87,53,235,95,142,163,83,121,141,23,136,36,58,199,239,112,205]},"announce":[],"urlList":[]}}